<svg width="16" height="16" viewBox="0 0 16 16" fill="none" xmlns="http://www.w3.org/2000/svg">
    <path
        d="M8.00016 14L7.0335 13.1333C5.91127 12.1222 4.9835 11.25 4.25016 10.5167C3.51683 9.78333 2.9335 9.12489 2.50016 8.54133C2.06683 7.95822 1.76416 7.42222 1.59216 6.93333C1.41972 6.44444 1.3335 5.94444 1.3335 5.43333C1.3335 4.38888 1.6835 3.51666 2.3835 2.81666C3.0835 2.11666 3.95572 1.76666 5.00016 1.76666C5.57794 1.76666 6.12794 1.88888 6.65016 2.13333C7.17238 2.37777 7.62238 2.72222 8.00016 3.16666C8.37794 2.72222 8.82794 2.37777 9.35016 2.13333C9.87238 1.88888 10.4224 1.76666 11.0002 1.76666C12.0446 1.76666 12.9168 2.11666 13.6168 2.81666C14.3168 3.51666 14.6668 4.38888 14.6668 5.43333C14.6668 5.94444 14.5808 6.44444 14.4088 6.93333C14.2364 7.42222 13.9335 7.95822 13.5002 8.54133C13.0668 9.12489 12.4835 9.78333 11.7502 10.5167C11.0168 11.25 10.0891 12.1222 8.96683 13.1333L8.00016 14ZM8.00016 12.2C9.06683 11.2444 9.94461 10.4249 10.6335 9.74133C11.3224 9.05822 11.8668 8.464 12.2668 7.95866C12.6668 7.45289 12.9446 7.00266 13.1002 6.608C13.2557 6.21377 13.3335 5.82222 13.3335 5.43333C13.3335 4.76666 13.1113 4.21111 12.6668 3.76666C12.2224 3.32222 11.6668 3.1 11.0002 3.1C10.4779 3.1 9.99461 3.24711 9.55016 3.54133C9.10572 3.836 8.80016 4.21111 8.6335 4.66666H7.36683C7.20016 4.21111 6.89461 3.836 6.45016 3.54133C6.00572 3.24711 5.52238 3.1 5.00016 3.1C4.3335 3.1 3.77794 3.32222 3.3335 3.76666C2.88905 4.21111 2.66683 4.76666 2.66683 5.43333C2.66683 5.82222 2.74461 6.21377 2.90016 6.608C3.05572 7.00266 3.3335 7.45289 3.7335 7.95866C4.1335 8.464 4.67794 9.05822 5.36683 9.74133C6.05572 10.4249 6.9335 11.2444 8.00016 12.2Z"
        fill="white" />
</svg>