<svg width="16" height="16" viewBox="0 0 16 16" fill="none" xmlns="http://www.w3.org/2000/svg">
    <path
        d="M7.99967 13.9999L7.03301 13.1333C5.91079 12.1222 4.98301 11.2499 4.24967 10.5166C3.51634 9.78327 2.93301 9.12482 2.49967 8.54127C2.06634 7.95816 1.76367 7.42216 1.59167 6.93327C1.41923 6.44438 1.33301 5.94438 1.33301 5.43327C1.33301 4.38882 1.68301 3.5166 2.38301 2.8166C3.08301 2.1166 3.95523 1.7666 4.99967 1.7666C5.57745 1.7666 6.12745 1.88882 6.64967 2.13327C7.1719 2.37771 7.6219 2.72216 7.99967 3.1666C8.37745 2.72216 8.82745 2.37771 9.34967 2.13327C9.8719 1.88882 10.4219 1.7666 10.9997 1.7666C12.0441 1.7666 12.9163 2.1166 13.6163 2.8166C14.3163 3.5166 14.6663 4.38882 14.6663 5.43327C14.6663 5.94438 14.5803 6.44438 14.4083 6.93327C14.2359 7.42216 13.933 7.95816 13.4997 8.54127C13.0663 9.12482 12.483 9.78327 11.7497 10.5166C11.0163 11.2499 10.0886 12.1222 8.96634 13.1333L7.99967 13.9999Z"
        fill="#E84118" />
</svg>